<?xml version="1.0" standalone="no"?>
<!DOCTYPE svg PUBLIC "-//W3C//DTD SVG 20010904//EN"
 "http://www.w3.org/TR/2001/REC-SVG-20010904/DTD/svg10.dtd">
<svg version="1.0" xmlns="http://www.w3.org/2000/svg"
 width="700.000000pt" height="700.000000pt" viewBox="0 0 700.000000 700.000000"
 preserveAspectRatio="xMidYMid meet">
<metadata>
Created by potrace 1.11, written by Peter Selinger 2001-2013
</metadata>
<g transform="translate(0.000000,700.000000) scale(0.100000,-0.100000)"
fill="#000000" stroke="none">
<path d="M2870 6330 c-316 -127 -584 -235 -595 -240 -11 -5 -90 -36 -175 -70
-85 -33 -164 -65 -175 -70 -18 -7 -144 -57 -510 -201 -55 -22 -109 -44 -120
-49 -11 -5 -162 -65 -335 -134 -398 -158 -470 -188 -470 -198 0 -10 5991 -10
6008 0 17 12 2 18 -678 288 -327 129 -968 385 -1425 567 -720 287 -838 331
-890 334 -58 3 -82 -6 -635 -227z"/>
<path d="M499 5057 c-45 -22 -59 -52 -59 -126 0 -76 14 -113 51 -135 30 -18
150 -18 3005 -18 2234 0 2981 3 3002 11 49 21 65 55 64 136 0 49 -6 82 -16 98
-37 55 175 52 -3040 52 -2830 0 -2973 -1 -3007 -18z"/>
<path d="M1267 4385 c-17 -5 -40 -23 -51 -38 l-21 -28 0 -1227 c0 -1210 0
-1227 20 -1254 11 -15 33 -32 49 -38 47 -17 539 -13 581 4 69 29 65 -56 65
1286 0 1338 4 1264 -62 1291 -38 15 -536 19 -581 4z"/>
<path d="M2583 4392 c-12 -2 -36 -16 -53 -32 -25 -23 -30 -36 -31 -77 -4 -258
-1 -2386 4 -2413 5 -24 17 -42 40 -57 32 -22 40 -23 306 -23 224 0 277 3 301
15 64 33 60 -45 60 1285 0 1340 4 1264 -63 1291 -23 10 -100 13 -287 14 -140
0 -265 -1 -277 -3z"/>
<path d="M3868 4385 c-17 -5 -41 -23 -52 -38 l-21 -28 0 -1221 c0 -1137 1
-1222 17 -1249 32 -53 49 -56 343 -55 245 1 274 3 299 19 15 10 33 31 39 46 9
21 12 337 12 1243 -1 1131 -2 1217 -18 1241 -9 15 -27 32 -39 38 -30 16 -533
20 -580 4z"/>
<path d="M5184 4392 c-19 -2 -43 -15 -60 -33 l-29 -30 -2 -1225 c-3 -1346 -7
-1266 57 -1299 24 -12 77 -15 300 -15 294 0 312 3 341 57 10 18 12 286 12
1225 0 662 -3 1220 -7 1240 -5 25 -17 44 -38 59 -30 22 -39 23 -287 23 -141 1
-270 0 -287 -2z"/>
<path d="M948 1442 c-34 -4 -88 -55 -89 -85 -5 -86 0 -191 11 -216 27 -66
-190 -61 2650 -59 l2572 3 29 33 c28 32 29 35 29 143 l0 111 -34 34 c-19 19
-45 34 -58 35 -67 3 -5087 4 -5110 1z"/>
<path d="M565 801 c-50 -21 -60 -46 -63 -165 -3 -120 4 -145 49 -178 26 -19
75 -20 2895 -19 1578 0 2895 0 2928 1 52 0 61 3 92 34 l34 34 0 117 0 117 -34
34 -34 34 -2923 -1 c-1608 0 -2933 -4 -2944 -8z"/>
</g>
</svg>
